<mxfile host="app.diagrams.net" modified="2023-09-28T17:00:06.502Z" agent="Mozilla/5.0 (Windows NT 10.0; Win64; x64) AppleWebKit/537.36 (KHTML, like Gecko) Chrome/116.0.0.0 Safari/537.36 OPR/102.0.0.0" version="21.8.2" etag="NjE0a1dVYbHm5FDtCDLz" type="github">
  <diagram name="PÃ¡gina-1" id="1w9NUuguhbp2LhBJneJq">
    <mxGraphModel>
      <root>
        <mxCell id="0" />
        <mxCell id="1" parent="0" />
      </root>
    </mxGraphModel>
  </diagram>
</mxfile>
